<svg width="15" height="18" viewBox="0 0 15 18" fill="none" xmlns="http://www.w3.org/2000/svg">
<g id="Group">
<g id="Group_2">
<path id="Vector" fill-rule="evenodd" clip-rule="evenodd" d="M14.646 4.66925C14.6565 4.47686 14.597 4.28447 14.4501 4.13756L10.5079 0.195349C10.3575 0.0449363 10.1546 -0.0145288 9.95871 0.00296101H1.33272C0.594653 0.00296101 0 0.601113 0 1.33569V16.6673C0 17.4018 0.598151 18 1.33272 18H13.3308C14.0653 18 14.6635 17.4018 14.6635 16.6673V4.66925H14.646ZM9.99719 1.654L13.0124 4.66925H9.99719V1.654ZM13.3308 16.6673H1.33272V1.33569H8.66446V5.33386C8.66446 5.70115 8.96179 6.00197 9.33257 6.00197H13.3308V16.6673Z" fill="black"/>
</g>
</g>
</svg>
