<svg width="18" height="18" viewBox="0 0 18 18" fill="none" xmlns="http://www.w3.org/2000/svg">
<g id="Group 8">
<path id="Vector" d="M17.4194 13.6452C17.4194 13.4142 17.3276 13.1926 17.1643 13.0293C17.0009 12.866 16.7794 12.7742 16.5484 12.7742C16.3174 12.7742 16.0959 12.866 15.9325 13.0293C15.7692 13.1926 15.6774 13.4142 15.6774 13.6452V14.8065C15.6774 15.1915 15.5245 15.5607 15.2523 15.8329C14.98 16.1051 14.6108 16.2581 14.2258 16.2581H3.19355C2.80856 16.2581 2.43933 16.1051 2.1671 15.8329C1.89487 15.5607 1.74194 15.1915 1.74194 14.8065V13.6452C1.74194 13.4142 1.65017 13.1926 1.48684 13.0293C1.3235 12.866 1.10196 12.7742 0.870968 12.7742C0.639973 12.7742 0.418439 12.866 0.2551 13.0293C0.0917623 13.1926 0 13.4142 0 13.6452V14.8065C0 15.6534 0.336462 16.4657 0.935369 17.0646C1.53428 17.6635 2.34657 18 3.19355 18H14.2258C14.6452 18 15.0605 17.9174 15.4479 17.7569C15.8354 17.5964 16.1874 17.3612 16.484 17.0646C16.7805 16.7681 17.0158 16.416 17.1763 16.0286C17.3368 15.6411 17.4194 15.2258 17.4194 14.8065V13.6452Z" fill="black"/>
<path id="Vector_2" d="M8.70967 0C8.47867 0 8.25714 0.0917623 8.0938 0.2551C7.93046 0.418439 7.8387 0.639973 7.8387 0.870968V10.0916L5.59741 7.83871C5.4151 7.6553 5.16793 7.55101 4.90934 7.54839C4.74258 7.54638 4.57929 7.59607 4.44193 7.69065C4.33681 7.76311 4.2489 7.85779 4.18444 7.968C4.11998 8.07821 4.08053 8.20124 4.0689 8.32838C4.05727 8.45553 4.07373 8.58367 4.11712 8.70375C4.16051 8.82382 4.22977 8.93289 4.31999 9.02323L7.1187 11.8132C7.32804 12.0235 7.57686 12.1904 7.85089 12.3043C8.12491 12.4182 8.41873 12.4768 8.71547 12.4768C9.01222 12.4768 9.30604 12.4182 9.58006 12.3043C9.85409 12.1904 10.1029 12.0235 10.3122 11.8132L13.1139 9.02032C13.2041 8.92999 13.2733 8.82092 13.3167 8.70084C13.3601 8.58077 13.3766 8.45262 13.365 8.32548C13.3533 8.19834 13.3139 8.0753 13.2494 7.9651C13.1849 7.85489 13.097 7.7602 12.9919 7.68774C12.8114 7.57328 12.5966 7.52544 12.3846 7.55247C12.1726 7.5795 11.9766 7.67972 11.8306 7.83581L9.58064 10.0916V0.870968C9.58064 0.639973 9.48887 0.418439 9.32553 0.2551C9.1622 0.0917623 8.94066 0 8.70967 0Z" fill="black"/>
</g>
</svg>
