<svg width="17" height="18" viewBox="0 0 17 18" fill="none" xmlns="http://www.w3.org/2000/svg">
<path id="Vector" d="M16.85 6.61678C16.8457 5.47844 16.453 4.37565 15.7369 3.49076C15.98 2.47907 15.9041 1.41694 15.5197 0.450066C15.4823 0.358187 15.425 0.275747 15.3519 0.208682C15.2788 0.141618 15.1917 0.0915972 15.0969 0.0622223C14.8255 -0.0308602 13.7977 -0.20539 11.7033 1.15206C10.8026 0.914344 9.87331 0.802103 8.94187 0.818518C8.00913 0.801894 7.07857 0.914135 6.17654 1.15206C4.02788 -0.236418 2.91089 -0.0114682 2.68594 0.0544653C2.59067 0.0851526 2.50336 0.136534 2.43027 0.204927C2.35718 0.273321 2.30013 0.357033 2.26319 0.450066C1.87782 1.41379 1.79927 2.47297 2.03824 3.483C1.29872 4.36346 0.904494 5.48273 0.929011 6.6323C0.929011 10.9218 3.38406 12.2172 5.63356 12.6749C5.51809 12.9573 5.43861 13.2531 5.39697 13.5553C5.39292 13.5875 5.39292 13.6201 5.39697 13.6523V14.8391C3.34916 15.0097 2.91089 13.8113 2.86823 13.6755C2.8583 13.6439 2.84665 13.6128 2.83333 13.5825C2.43779 12.7755 1.74153 12.1558 0.894105 11.8566C0.723353 11.7995 0.536916 11.8125 0.375809 11.8929C0.214701 11.9733 0.0921198 12.1144 0.035031 12.2851C-0.0220577 12.4559 -0.00897689 12.6423 0.0713951 12.8034C0.151767 12.9645 0.292846 13.0871 0.463598 13.1442C0.933207 13.3139 1.32483 13.6489 1.56508 14.0867C1.83657 14.9671 2.9458 16.3594 5.38921 16.2043V17.3213C5.38921 17.5013 5.46072 17.6739 5.58801 17.8012C5.7153 17.9285 5.88793 18 6.06794 18C6.24795 18 6.42059 17.9285 6.54787 17.8012C6.67516 17.6739 6.74667 17.5013 6.74667 17.3213V13.7027C6.79816 13.3075 6.97015 12.9378 7.23923 12.6439C7.33349 12.5556 7.40046 12.4422 7.4322 12.3171C7.46393 12.1919 7.4591 12.0603 7.41827 11.9378C7.37744 11.8153 7.30233 11.7071 7.20185 11.626C7.10137 11.5449 6.97974 11.4944 6.85139 11.4803C4.48554 11.205 2.2981 10.4254 2.2981 6.60515C2.28237 6.14401 2.36249 5.68463 2.5334 5.25604C2.7043 4.82745 2.96226 4.43898 3.29098 4.11519C3.37938 4.02005 3.44046 3.9028 3.46776 3.77583C3.49507 3.64886 3.48759 3.51687 3.44612 3.3938C3.21763 2.72987 3.20271 2.01107 3.40345 1.33823C4.23625 1.52625 5.0183 1.8928 5.69561 2.41256C5.78264 2.47015 5.88154 2.50739 5.98495 2.52149C6.08836 2.53559 6.19362 2.5262 6.29289 2.494C7.15464 2.23171 8.05302 2.10992 8.9535 2.13331C9.85271 2.10986 10.7498 2.23166 11.6102 2.494C11.7095 2.52648 11.8148 2.53602 11.9182 2.52191C12.0217 2.50781 12.1206 2.47042 12.2075 2.41256C12.8599 1.91271 13.6066 1.54992 14.4027 1.34599C14.6004 2.02627 14.5828 2.75107 14.3523 3.42095C14.3143 3.53274 14.3065 3.65256 14.3297 3.76833C14.3528 3.88409 14.4061 3.9917 14.4842 4.08028C15.1262 4.76583 15.4899 5.66598 15.5042 6.60515C15.5042 10.4177 13.2043 11.2089 10.9509 11.4803C10.816 11.4953 10.6887 11.5507 10.5858 11.6391C10.4828 11.7276 10.4089 11.845 10.3737 11.9761C10.3385 12.1072 10.3437 12.2459 10.3885 12.374C10.4334 12.5021 10.5158 12.6138 10.6251 12.6943C10.8656 12.8766 11.1448 13.3885 11.1448 14.2457V17.3174C11.1448 17.4974 11.2163 17.67 11.3436 17.7973C11.4709 17.9246 11.6435 17.9961 11.8235 17.9961C12.0036 17.9961 12.1762 17.9246 12.3035 17.7973C12.4308 17.67 12.5023 17.4974 12.5023 17.3174V14.2457C12.5094 13.7055 12.4105 13.1693 12.2114 12.6671C14.0343 12.2793 16.85 11.0809 16.85 6.61678Z" fill="black"/>
</svg>
