<svg width="233" height="233" viewBox="0 0 233 233" fill="none" xmlns="http://www.w3.org/2000/svg">
<rect width="233" height="233" fill="white"/>
<path d="M116 116.5C116 104.167 111.101 92.34 102.38 83.6195C93.66 74.8991 81.8326 70 69.5 70C57.1674 70 45.34 74.8991 36.6195 83.6195C27.8991 92.34 23 104.167 23 116.5L69.5 116.5H116Z" fill="black"/>
<path d="M209 116.5C209 128.833 204.101 140.66 195.38 149.38C186.66 158.101 174.833 163 162.5 163C150.167 163 138.34 158.101 129.62 149.38C120.899 140.66 116 128.833 116 116.5L162.5 116.5H209Z" fill="black"/>
</svg>
