<svg width="23" height="22" viewBox="0 0 23 22" fill="none" xmlns="http://www.w3.org/2000/svg">
<path d="M10.4638 2.65648C10.0142 2.22748 9.41665 1.98813 8.79523 1.98813C8.1738 1.98813 7.57625 2.22748 7.12667 2.65648L2.67643 7.10609C2.23651 7.55016 1.98972 8.14996 1.98972 8.77505C1.98972 9.40013 2.23651 9.99993 2.67643 10.444L11.5761 19.3435C12.02 19.7834 12.6197 20.0302 13.2447 20.0302C13.8696 20.0302 14.4693 19.7834 14.9132 19.3435L19.3635 14.8939C19.8034 14.4499 20.0502 13.85 20.0502 13.225C20.0502 12.5999 19.8034 12.0001 19.3635 11.556L10.4638 2.65648ZM7.28179 5.8384L5.85835 7.26224L5.11693 6.89157L6.9112 5.09754L7.28179 5.8384ZM18.2512 13.781L13.8001 18.2312C13.6505 18.3743 13.4514 18.4542 13.2443 18.4542C13.0373 18.4542 12.8382 18.3743 12.6885 18.2312L3.78875 9.33144C3.70621 9.24217 3.64412 9.13599 3.60679 9.02028C3.56946 8.90457 3.55779 8.78212 3.57261 8.66145C3.58742 8.54077 3.62834 8.42477 3.69254 8.32153C3.75675 8.21828 3.84267 8.13026 3.94435 8.0636L5.15461 8.66932C5.4499 8.81732 5.78432 8.86848 6.11035 8.81552C6.43638 8.76256 6.73741 8.60818 6.97067 8.37433L8.39451 6.95049C8.62831 6.7172 8.78266 6.41616 8.83561 6.09015C8.88857 5.76414 8.83744 5.42973 8.6895 5.13443L8.08378 3.92464C8.15033 3.82287 8.23827 3.73684 8.34148 3.67255C8.44469 3.60826 8.56068 3.56725 8.68136 3.55239C8.80205 3.53753 8.92452 3.54918 9.04024 3.58651C9.15596 3.62385 9.26215 3.68598 9.35139 3.76857L18.2512 12.6686C18.3978 12.8165 18.4801 13.0164 18.4801 13.2248C18.4801 13.4331 18.3978 13.633 18.2512 13.781Z" fill="black"/>
<path d="M22.03 7.63597C22.0466 7.84289 21.9809 8.04801 21.8469 8.20663C21.713 8.36524 21.5218 8.46449 21.315 8.48273C21.1082 8.50098 20.9026 8.43675 20.743 8.30404C20.5834 8.17133 20.4826 7.98091 20.4628 7.77426C20.4003 6.65523 19.9313 5.59753 19.1439 4.7999C18.3566 4.00227 17.305 3.5196 16.1869 3.44258L16.8231 4.2013C16.95 4.36183 17.0094 4.56553 16.9887 4.76914C16.9679 4.97276 16.8686 5.16026 16.7118 5.29184C16.555 5.42341 16.3531 5.48871 16.149 5.47386C15.9449 5.45901 15.7546 5.36518 15.6185 5.2123L13.8777 3.13736C13.7539 2.99012 13.6885 2.8026 13.6937 2.61033C13.6989 2.41806 13.7745 2.23439 13.9061 2.0941L15.6469 0.235797C15.7908 0.0890745 15.9864 0.00450242 16.1919 0.000174628C16.3974 -0.00415317 16.5964 0.0721069 16.7463 0.212639C16.8963 0.353172 16.9853 0.546816 16.9943 0.752142C17.0034 0.957467 16.9317 1.15817 16.7946 1.3113L16.2608 1.88108C17.7534 1.98721 19.1579 2.62722 20.2173 3.68399C21.2767 4.74077 21.9202 6.14365 22.03 7.63597Z" fill="black"/>
<path d="M8.16221 18.8626C8.28597 19.0099 8.35143 19.1974 8.3462 19.3897C8.34096 19.5819 8.2654 19.7656 8.13382 19.9059L6.39304 21.7642C6.24912 21.9109 6.0535 21.9955 5.84802 21.9998C5.64254 22.0042 5.44353 21.9279 5.29356 21.7874C5.14359 21.6468 5.05458 21.4532 5.04556 21.2479C5.03654 21.0425 5.10824 20.8418 5.24532 20.6887L5.77615 20.1219C4.28355 20.015 2.87935 19.3742 1.8205 18.3168C0.761651 17.2594 0.11895 15.8561 0.010003 14.3636C-0.00666428 14.1567 0.0591353 13.9516 0.19306 13.793C0.326985 13.6344 0.518177 13.5351 0.724965 13.5169C0.931753 13.4986 1.13737 13.5629 1.297 13.6956C1.45664 13.8283 1.55734 14.0187 1.57717 14.2253C1.63974 15.3448 2.1089 16.4028 2.89652 17.2007C3.68413 17.9987 4.73599 18.4816 5.8545 18.5587L5.21692 17.7983C5.08995 17.6378 5.03056 17.4341 5.05133 17.2305C5.07211 17.0268 5.17143 16.8393 5.32821 16.7078C5.48498 16.5762 5.68686 16.5109 5.89099 16.5257C6.09513 16.5406 6.28543 16.6344 6.42152 16.7873L8.16221 18.8626Z" fill="black"/>
<rect x="3.11378" y="8.6402" width="7.84375" height="5.50655" rx="1" transform="rotate(-45 3.11378 8.6402)" fill="#E6E6E6"/>
</svg>
