<svg width="21" height="18" viewBox="0 0 21 18" fill="none" xmlns="http://www.w3.org/2000/svg">
<path d="M3.53571 14.1429H4.99821L5.09464 14.2811C5.8939 15.4288 6.95868 16.3663 8.19832 17.0138C9.43795 17.6613 10.8157 17.9997 12.2143 18C12.811 18 13.3833 17.7629 13.8053 17.341C14.2272 16.919 14.4643 16.3467 14.4643 15.75V2.25C14.4643 1.65326 14.2272 1.08097 13.8053 0.65901C13.3833 0.237053 12.811 0 12.2143 0C10.8157 0.000342107 9.43795 0.338681 8.19832 0.986202C6.95868 1.63372 5.8939 2.57125 5.09464 3.71893L4.99821 3.85714H3.53571C2.59798 3.85714 1.69866 4.22965 1.03559 4.89273C0.372511 5.5558 0 6.45513 0 7.39286V10.6071C0 11.5449 0.372511 12.4442 1.03559 13.1073C1.69866 13.7703 2.59798 14.1429 3.53571 14.1429ZM1.92857 7.39286C1.92857 6.96662 2.09789 6.55783 2.39929 6.25644C2.70069 5.95504 3.10947 5.78571 3.53571 5.78571H5.53821C5.70854 5.78485 5.87559 5.73889 6.02238 5.65251C6.16918 5.56613 6.29047 5.44241 6.37393 5.29393C6.96911 4.27212 7.82135 3.42386 8.84593 2.83347C9.87052 2.24308 11.0318 1.93111 12.2143 1.92857C12.2995 1.92857 12.3813 1.96244 12.4416 2.02272C12.5018 2.08299 12.5357 2.16475 12.5357 2.25V15.75C12.5357 15.8352 12.5018 15.917 12.4416 15.9773C12.3813 16.0376 12.2995 16.0714 12.2143 16.0714C11.0323 16.0683 9.87173 15.7561 8.84775 15.1657C7.82378 14.5754 6.97205 13.7274 6.37714 12.7061C6.29342 12.5571 6.17162 12.4331 6.02421 12.3467C5.8768 12.2603 5.70908 12.2146 5.53821 12.2143H3.53571C3.10947 12.2143 2.70069 12.045 2.39929 11.7436C2.09789 11.4422 1.92857 11.0334 1.92857 10.6071V7.39286Z" fill="black"/>
<path d="M17.7463 6.3945C17.5657 6.5753 17.4643 6.82039 17.4643 7.07592C17.4643 7.33146 17.5657 7.57655 17.7463 7.75735C18.0001 8.1222 18.1266 8.56051 18.1063 9.0045C18.1262 9.44547 18.0021 9.88094 17.7527 10.2452C17.6624 10.3349 17.5906 10.4415 17.5417 10.559C17.4927 10.6765 17.4675 10.8026 17.4675 10.9299C17.4675 11.0572 17.4927 11.1832 17.5417 11.3007C17.5906 11.4182 17.6624 11.5249 17.7527 11.6145C17.9363 11.7898 18.1804 11.8876 18.4342 11.8876C18.688 11.8876 18.932 11.7898 19.1156 11.6145C19.7437 10.8936 20.0726 9.95991 20.0349 9.0045C20.0708 8.04822 19.7396 7.11441 19.1092 6.3945C18.9284 6.21392 18.6833 6.11249 18.4277 6.11249C18.1722 6.11249 17.9271 6.21392 17.7463 6.3945Z" fill="black"/>
</svg>
