<svg width="80" height="80" viewBox="0 0 80 80" fill="none" xmlns="http://www.w3.org/2000/svg">
<rect width="80" height="80" fill="white"/>
<rect x="38.25" y="32.25" width="3.5" height="18.5" fill="black" stroke="black" stroke-width="0.5"/>
<path d="M40 49.25C42.0711 49.25 43.75 50.9289 43.75 53V56.75H36.25V53C36.25 50.9289 37.9289 49.25 40 49.25Z" fill="black" stroke="black" stroke-width="0.5"/>
<rect x="41.75" y="57.25" width="3.5" height="3.5" transform="rotate(90 41.75 57.25)" fill="#FFD700" stroke="black" stroke-width="0.5"/>
<rect x="41.75" y="60.75" width="3.5" height="3.5" transform="rotate(90 41.75 60.75)" fill="#FFD700" stroke="black" stroke-width="0.5"/>
<rect x="41.75" y="64.25" width="3.5" height="3.5" transform="rotate(90 41.75 64.25)" fill="#FFD700" stroke="black" stroke-width="0.5"/>
<path d="M40.75 68.25V71C40.75 71.4142 40.4142 71.75 40 71.75C39.5858 71.75 39.25 71.4142 39.25 71V68.25H40.75Z" fill="#FFD700" stroke="black" stroke-width="0.5"/>
<path d="M36.6512 9.30249C36.352 8.70408 36.7872 8 37.4562 8H42.5438C43.2128 8 43.648 8.70408 43.3488 9.30249L43.118 9.76393C42.4142 11.1716 42.4142 12.8284 43.118 14.2361L43.3488 14.6975C43.648 15.2959 43.2128 16 42.5438 16H37.4562C36.7872 16 36.352 15.2959 36.6512 14.6975L36.882 14.2361C37.5858 12.8284 37.5858 11.1716 36.882 9.76393L36.6512 9.30249Z" fill="black"/>
<line x1="38.75" y1="21" x2="38.75" y2="16" stroke="#C0C0C0" stroke-width="0.5"/>
<path d="M41.3 23V16" stroke="#C0C0C0" stroke-width="0.5"/>
<path d="M39 32V21.2929C39 21.1311 38.8689 21 38.7071 21V21C38.4462 21 38.3155 20.6845 38.5 20.5L38.6464 20.3536C38.7769 20.2231 38.6845 20 38.5 20V20C38.3155 20 38.2231 19.7769 38.3536 19.6464L38.6464 19.3536C38.7769 19.2231 38.6845 19 38.5 19V19C38.3155 19 38.2231 18.7769 38.3536 18.6464L39 18" stroke="#B87333" stroke-width="0.5"/>
<path d="M41 32V23.2929C41 23.1311 41.1311 23 41.2929 23V23C41.5538 23 41.6845 22.6845 41.5 22.5L41.3536 22.3536C41.2231 22.2231 41.3155 22 41.5 22V22C41.6845 22 41.7769 21.7769 41.6464 21.6464L41.3536 21.3536C41.2231 21.2231 41.3155 21 41.5 21V21C41.6845 21 41.7769 20.7769 41.6464 20.6464L41 20" stroke="#B87333" stroke-width="0.5"/>
</svg>
