<svg width="80" height="80" viewBox="0 0 80 80" fill="none" xmlns="http://www.w3.org/2000/svg">
<rect width="80" height="80" fill="white"/>
<path d="M41 27V13" stroke="#B87333" stroke-width="0.5"/>
<path d="M39 27V13" stroke="#B87333" stroke-width="0.5"/>
<rect x="38.25" y="27.25" width="3.5" height="18.5" fill="black" stroke="black" stroke-width="0.5"/>
<path d="M40 44.25C42.0711 44.25 43.75 45.9289 43.75 48V51.75H36.25V48C36.25 45.9289 37.9289 44.25 40 44.25Z" fill="black" stroke="black" stroke-width="0.5"/>
<rect x="41.75" y="52.25" width="3.5" height="3.5" transform="rotate(90 41.75 52.25)" fill="#FFD700" stroke="black" stroke-width="0.5"/>
<rect x="41.75" y="55.75" width="3.5" height="3.5" transform="rotate(90 41.75 55.75)" fill="#FFD700" stroke="black" stroke-width="0.5"/>
<rect x="41.75" y="59.25" width="3.5" height="3.5" transform="rotate(90 41.75 59.25)" fill="#FFD700" stroke="black" stroke-width="0.5"/>
<path d="M40.75 63.25V66C40.75 66.4142 40.4142 66.75 40 66.75C39.5858 66.75 39.25 66.4142 39.25 66V63.25H40.75Z" fill="#FFD700" stroke="black" stroke-width="0.5"/>
</svg>
