<svg width="80" height="80" viewBox="0 0 80 80" fill="none" xmlns="http://www.w3.org/2000/svg">
<rect width="80" height="80" fill="white"/>
<path d="M38.672 46.75L60.093 28.25H63.328L41.907 46.75H38.672Z" fill="black" stroke="black" stroke-width="0.5"/>
<path d="M38.093 46.75L16.672 28.25H19.4086L41.3165 46.75H38.093Z" fill="black" stroke="black" stroke-width="0.5"/>
<path d="M40 45.25C42.0711 45.25 43.75 46.9289 43.75 49V52.75H36.25V49C36.25 46.9289 37.9289 45.25 40 45.25Z" fill="black" stroke="black" stroke-width="0.5"/>
<rect x="41.75" y="53.25" width="3.5" height="3.5" transform="rotate(90 41.75 53.25)" fill="#FFD700" stroke="black" stroke-width="0.5"/>
<rect x="41.75" y="56.75" width="3.5" height="3.5" transform="rotate(90 41.75 56.75)" fill="#FFD700" stroke="black" stroke-width="0.5"/>
<rect x="41.75" y="60.25" width="3.5" height="3.5" transform="rotate(90 41.75 60.25)" fill="#FFD700" stroke="black" stroke-width="0.5"/>
<path d="M40.75 64.25V67C40.75 67.4142 40.4142 67.75 40 67.75C39.5858 67.75 39.25 67.4142 39.25 67V64.25H40.75Z" fill="#FFD700" stroke="black" stroke-width="0.5"/>
<path d="M18 28.75C15.9289 28.75 14.25 27.0711 14.25 25L14.25 13.25L21.75 13.25L21.75 25C21.75 27.0711 20.0711 28.75 18 28.75Z" fill="black" stroke="black" stroke-width="0.5"/>
<path d="M62 28.75C59.9289 28.75 58.25 27.0711 58.25 25V13.25L65.75 13.25V25C65.75 27.0711 64.0711 28.75 62 28.75Z" fill="black" stroke="black" stroke-width="0.5"/>
</svg>
