<svg width="40" height="40" viewBox="0 0 40 40" fill="none" xmlns="http://www.w3.org/2000/svg">
<path d="M21.5 23C21.5 22.1716 20.8284 21.5 20 21.5C19.1716 21.5 18.5 22.1716 18.5 23H21.5ZM18.9393 25.0607C19.5251 25.6464 20.4749 25.6464 21.0607 25.0607L30.6066 15.5147C31.1924 14.9289 31.1924 13.9792 30.6066 13.3934C30.0208 12.8076 29.0711 12.8076 28.4853 13.3934L20 21.8787L11.5147 13.3934C10.9289 12.8076 9.97919 12.8076 9.3934 13.3934C8.80761 13.9792 8.80761 14.9289 9.3934 15.5147L18.9393 25.0607ZM18.5 23V24H21.5V23H18.5Z" fill="black"/>
<line x1="9.5" y1="28.5" x2="30.5" y2="28.5" stroke="black" stroke-width="3" stroke-linecap="round"/>
</svg>
